<svg version="1.0" xmlns="http://www.w3.org/2000/svg"
 width="300.000000pt" height="300.000000pt" viewBox="0 0 300.000000 300.000000"
 preserveAspectRatio="xMidYMid meet">
<g transform="translate(0.000000,300.000000) scale(0.100000,-0.100000)"
fill="#000000" stroke="none">
<path d="M455 1777 c-3 -7 -4 -136 -3 -287 l3 -275 1043 -3 1042 -2 0 290 0
290 -1040 0 c-830 0 -1042 -3 -1045 -13z m2075 -277 l0 -270 -1030 0 -1030 0
0 270 0 270 1030 0 1030 0 0 -270z"/>
<path d="M510 1500 l0 -230 495 0 495 0 0 230 0 230 -495 0 -495 0 0 -230z
m540 80 c0 -5 -16 -10 -35 -10 -31 0 -35 -3 -35 -25 0 -22 4 -25 35 -25 19 0
35 -4 35 -10 0 -5 -16 -10 -35 -10 -31 0 -35 -3 -35 -25 0 -22 4 -25 34 -25
19 0 38 -4 41 -10 4 -6 -13 -10 -44 -10 l-51 0 0 73 c0 41 3 77 7 80 10 11 83
8 83 -3z"/>
<path d="M1667 1570 c-27 -22 -36 -65 -21 -105 10 -26 62 -44 97 -34 27 8 56
34 57 52 0 11 -38 8 -60 -5 -39 -25 -77 23 -45 56 20 20 29 20 49 1 16 -16 56
-21 56 -6 0 21 -38 52 -70 57 -27 4 -42 1 -63 -16z"/>
<path d="M1846 1569 c-20 -16 -26 -29 -26 -60 0 -52 27 -79 79 -79 54 0 85 27
85 75 0 72 -81 109 -138 64z m78 -32 c36 -26 -4 -84 -41 -61 -24 15 -27 38 -8
58 20 19 26 20 49 3z"/>
<path d="M2010 1510 c0 -79 0 -80 26 -80 22 0 25 3 20 30 -5 34 -4 35 24 18
16 -10 24 -10 40 0 27 17 28 16 26 -18 -2 -25 1 -30 21 -30 22 0 23 3 23 80 0
94 -11 101 -59 43 l-31 -38 -31 38 c-48 58 -59 51 -59 -43z"/>
<path d="M2227 1583 c-4 -3 -7 -39 -7 -80 0 -71 1 -73 25 -73 22 0 25 4 25 38
1 30 3 34 11 20 5 -10 19 -18 31 -18 11 0 27 8 34 18 12 15 13 13 14 -20 0
-31 4 -38 20 -38 18 0 20 7 20 80 0 94 -13 103 -59 40 l-29 -40 -27 40 c-26
38 -44 48 -58 33z"/>
</g>
</svg>
